<svg width="64" height="64" viewBox="0 0 64 64" fill="none" xmlns="http://www.w3.org/2000/svg">
  <path d="M32 40V28" stroke="#38BDF8" stroke-width="2" stroke-linecap="round" stroke-linejoin="round"/>
  <path d="M26 34L32 28L38 34" stroke="#38BDF8" stroke-width="2" stroke-linecap="round" stroke-linejoin="round"/>
  <path d="M48 40C48 39.7348 47.8946 39.4804 47.7071 39.2929C47.5196 39.1054 47.2652 39 47 39H17C16.7348 39 16.4804 39.1054 16.2929 39.2929C16.1054 39.4804 16 39.7348 16 40C16 42.6522 17.0536 45.1957 18.9289 47.0711C20.8043 48.9464 23.3478 50 26 50H38C40.6522 50 43.1957 48.9464 45.0711 47.0711C46.9464 45.1957 48 42.6522 48 40Z" stroke="#38BDF8" stroke-width="2" stroke-linecap="round" stroke-linejoin="round"/>
  <path d="M40 21.18C38.8865 20.3944 37.5972 19.8791 36.2447 19.6779C34.8921 19.4766 33.516 19.5951 32.2258 20.0227C30.9356 20.4503 29.7728 21.1733 28.8439 22.1272C27.9149 23.0811 27.2469 24.2353 26.9 25.5M17 35.28C15.8848 34.4302 15.0087 33.3082 14.4454 32.0164C13.8822 30.7246 13.6513 29.3059 13.7725 27.8938C13.8937 26.4818 14.3632 25.1154 15.1389 23.9186C15.9146 22.7217 16.9741 21.7295 18.23 21.02C19.4845 20.3114 20.8935 19.908 22.3384 19.8476C23.7833 19.7872 25.2235 20.0714 26.532 20.676" stroke="#38BDF8" stroke-width="2" stroke-linecap="round" stroke-linejoin="round"/>
  <path d="M47.24 35.28C49.0022 33.5456 50.0028 31.1837 50.0009 28.7112C50.0019 27.5169 49.7653 26.3356 49.3047 25.2347C48.8442 24.1339 48.1692 23.136 47.32 22.3C46.4708 21.464 45.4638 20.8023 44.3576 20.3551C43.2514 19.9079 42.0684 19.6847 40.874 19.6988" stroke="#38BDF8" stroke-width="2" stroke-linecap="round" stroke-linejoin="round"/>
</svg> 